<svg width="1600" height="900" viewBox="0 0 1600 900" fill="none" xmlns="http://www.w3.org/2000/svg">
  <defs>
    <linearGradient id="g1" x1="0" y1="0" x2="1" y2="1">
      <stop offset="0%" stop-color="#10b981" stop-opacity="0.22"/>
      <stop offset="100%" stop-color="#0ea5e9" stop-opacity="0.08"/>
    </linearGradient>
  </defs>
  <rect width="1600" height="900" fill="url(#g1)"/>
  <g stroke="#0f766e" stroke-opacity="0.15" stroke-width="2">
    <path d="M120 720C290 560 470 480 680 500C870 518 1030 640 1260 632C1380 628 1470 574 1550 516"/>
    <path d="M86 566C270 420 478 358 700 380C922 404 1110 542 1330 528C1428 520 1510 474 1574 430"/>
    <path d="M100 400C286 286 480 236 710 252C928 268 1104 386 1322 380C1438 376 1516 330 1582 286"/>
  </g>
  <g>
    <circle cx="256" cy="592" r="13" fill="#0f766e" fill-opacity="0.35"/>
    <circle cx="430" cy="480" r="11" fill="#0f766e" fill-opacity="0.28"/>
    <circle cx="642" cy="504" r="12" fill="#0284c7" fill-opacity="0.28"/>
    <circle cx="860" cy="540" r="13" fill="#0f766e" fill-opacity="0.30"/>
    <circle cx="1104" cy="598" r="11" fill="#0284c7" fill-opacity="0.25"/>
    <circle cx="1320" cy="568" r="12" fill="#0f766e" fill-opacity="0.28"/>
  </g>
</svg>
